<svg aria-hidden="true" style="position: absolute; width: 0; height: 0; overflow: hidden;" version="1.1" xmlns="http://www.w3.org/2000/svg" xmlns:xlink="http://www.w3.org/1999/xlink">
<defs>
<symbol id="icon-facebook" viewBox="0 0 32 32"><path d="M21.329 5.313h2.921V.225C23.746.156 22.013 0 19.994 0c-4.212 0-7.097 2.649-7.097 7.519V12H8.249v5.688h4.648V32h5.699V17.689h4.46l.708-5.688h-5.169V8.082c.001-1.644.444-2.769 2.735-2.769z"/></symbol>
<symbol id="phone-icon" viewBox="0 0 32 32">
<path d="M26.126 20.026c-0.225-0.26-0.503-0.469-0.816-0.612s-0.652-0.217-0.996-0.217c-0.344 0-0.683 0.074-0.996 0.217s-0.591 0.352-0.816 0.612c-0.846 0.836-1.693 1.683-2.529 2.539-0.079 0.107-0.195 0.18-0.326 0.203s-0.265-0.005-0.376-0.079c-0.547-0.299-1.135-0.537-1.662-0.867-2.416-1.566-4.557-3.519-6.338-5.781-0.93-1.096-1.698-2.32-2.281-3.634-0.063-0.109-0.085-0.237-0.060-0.361s0.094-0.234 0.194-0.31c0.846-0.826 1.672-1.662 2.508-2.508 0.273-0.227 0.492-0.511 0.643-0.832s0.229-0.671 0.229-1.026c0-0.355-0.078-0.705-0.229-1.026s-0.37-0.605-0.643-0.832l-1.992-1.992c-0.681-0.681-1.363-1.373-2.065-2.065-0.227-0.257-0.505-0.463-0.818-0.604s-0.651-0.214-0.994-0.214c-0.343 0-0.681 0.073-0.994 0.214s-0.591 0.347-0.818 0.604c-0.857 0.836-1.672 1.703-2.55 2.529-0.772 0.729-1.235 1.727-1.29 2.787-0.074 1.739 0.237 3.473 0.908 5.079 1.288 3.338 3.142 6.429 5.481 9.135 3.079 3.697 6.912 6.696 11.241 8.795 1.924 1.007 4.030 1.622 6.194 1.806 0.725 0.081 1.459-0.011 2.141-0.269s1.293-0.676 1.782-1.217c0.723-0.815 1.538-1.559 2.312-2.333 0.268-0.228 0.483-0.511 0.63-0.83s0.224-0.666 0.224-1.018c0-0.351-0.076-0.699-0.224-1.018s-0.362-0.602-0.63-0.83c-1.335-1.349-2.684-2.698-4.046-4.046z"></path>
</symbol>
<symbol id="mail-icon" viewBox="0 0 43 32">
<path d="M37.333 1.213h-32c-1.415 0-2.771 0.562-3.771 1.562s-1.562 2.357-1.562 3.771v20c0 1.415 0.562 2.771 1.562 3.771s2.357 1.562 3.771 1.562h32c1.415 0 2.771-0.562 3.771-1.562s1.562-2.357 1.562-3.771v-20c0-1.414-0.562-2.771-1.562-3.771s-2.357-1.562-3.771-1.562zM36.84 10.24l-14.667 12c-0.238 0.193-0.534 0.298-0.84 0.298s-0.602-0.105-0.84-0.298l-14.667-12c-0.155-0.103-0.288-0.237-0.388-0.394s-0.167-0.334-0.195-0.518c-0.028-0.184-0.017-0.373 0.032-0.552s0.136-0.347 0.254-0.492c0.118-0.144 0.265-0.262 0.432-0.346s0.349-0.132 0.535-0.141c0.186-0.009 0.372 0.021 0.546 0.088s0.332 0.17 0.463 0.302l13.827 11.307 13.827-11.307c0.275-0.182 0.609-0.256 0.935-0.206s0.623 0.218 0.832 0.474 0.316 0.58 0.3 0.91c-0.016 0.33-0.154 0.642-0.387 0.876z"></path>
</symbol>
<symbol id="contact-icon" viewBox="0 0 32 32">
<path fill="#ffa200" d="M16 0c-8.839 0-16 7.161-16 16s7.161 16 16 16c8.839 0 16-7.161 16-16s-7.161-16-16-16zM16 6.194c3.136 0 5.677 2.542 5.677 5.677s-2.542 5.677-5.677 5.677c-3.136 0-5.677-2.542-5.677-5.677s2.542-5.677 5.677-5.677zM16 28.387c-3.787 0-7.181-1.716-9.452-4.4 1.213-2.284 3.587-3.858 6.355-3.858 0.155 0 0.31 0.026 0.458 0.071 0.839 0.271 1.716 0.445 2.639 0.445s1.806-0.174 2.639-0.445c0.148-0.045 0.303-0.071 0.458-0.071 2.768 0 5.142 1.574 6.355 3.858-2.271 2.684-5.665 4.4-9.452 4.4z"></path>
</symbol>
<symbol id="skills-icon" viewBox="0 0 23 32">
<path fill="#ffa200" d="M6.004 28.397c0.001 0.393 0.117 0.778 0.335 1.106l1.068 1.606c0.182 0.274 0.43 0.5 0.72 0.655s0.615 0.237 0.945 0.237h3.857c0.33 0 0.654-0.081 0.944-0.237s0.538-0.381 0.72-0.655l1.068-1.606c0.218-0.328 0.335-0.712 0.335-1.106l0.002-2.397h-9.999l0.003 2.397zM0 11c0 2.773 1.028 5.303 2.723 7.236 1.032 1.178 2.647 3.639 3.263 5.716 0.003 0.016 0.004 0.032 0.007 0.049h10.015c0.002-0.016 0.004-0.032 0.007-0.049 0.616-2.076 2.231-4.537 3.263-5.716 1.694-1.933 2.723-4.463 2.723-7.236 0-6.087-4.943-11.019-11.034-11-6.376 0.019-10.966 5.186-10.966 11zM11 6c-2.757 0-5 2.243-5 5 0 0.553-0.447 1-1 1s-1-0.447-1-1c0-3.86 3.14-7 7-7 0.553 0 1 0.447 1 1s-0.447 1-1 1z"></path>
</symbol>
<symbol id="tools-icon" viewBox="0 0 32 32">
<path fill="#ffa200" d="M31.322 24.731l-7.319-7.319c-1.444-1.444-3.6-1.725-5.337-0.869l-6.662-6.662v-3.881l-8-6-4 4 6 8h3.881l6.662 6.663c-0.85 1.737-0.575 3.894 0.869 5.337l7.319 7.319c0.913 0.913 2.388 0.913 3.294 0l3.294-3.294c0.906-0.913 0.906-2.387 0-3.294zM20.734 14.062c1.769 0 3.431 0.688 4.681 1.938l1.212 1.213c0.988-0.431 1.925-1.031 2.738-1.844 2.319-2.319 3.106-5.581 2.369-8.544-0.137-0.563-0.844-0.756-1.256-0.344l-4.65 4.65-4.244-0.706-0.706-4.244 4.65-4.65c0.413-0.413 0.213-1.119-0.356-1.262-2.962-0.731-6.225 0.056-8.537 2.369-1.781 1.781-2.619 4.131-2.575 6.475l5.131 5.131c0.506-0.119 1.031-0.181 1.544-0.181zM14.241 19.187l-3.544-3.544-9.525 9.531c-1.563 1.563-1.563 4.094 0 5.656s4.094 1.563 5.656 0l7.725-7.725c-0.475-1.244-0.619-2.6-0.312-3.919zM4.003 29.5c-0.825 0-1.5-0.675-1.5-1.5 0-0.831 0.669-1.5 1.5-1.5s1.5 0.669 1.5 1.5c0 0.825-0.669 1.5-1.5 1.5z"></path>
</symbol>
</defs>
</svg>
